<svg xmlns="http://www.w3.org/2000/svg" version="1.1" xmlns:xlink="http://www.w3.org/1999/xlink" xmlns:svgjs="http://svgjs.dev/svgjs" width="260" height="400" preserveAspectRatio="none" viewBox="0 0 260 400"><g mask="url(&quot;#SvgjsMask1146&quot;)" fill="none"><path d="M-75.97 338.58 a85.39 85.39 0 1 0 170.78 0 a85.39 85.39 0 1 0 -170.78 0z" fill="rgba(27, 117, 187, 1)" class="triangle-float3"></path><path d="M102.2 213.65 a79.13 79.13 0 1 0 158.26 0 a79.13 79.13 0 1 0 -158.26 0z" fill="rgba(27, 117, 187, 1)" class="triangle-float2"></path><path d="M188.4 36.72 a60.84 60.84 0 1 0 121.68 0 a60.84 60.84 0 1 0 -121.68 0z" fill="rgba(27, 117, 187, 1)" class="triangle-float1"></path><path d="M13.92 174.9 a74.13 74.13 0 1 0 148.26 0 a74.13 74.13 0 1 0 -148.26 0z" fill="rgba(27, 117, 187, 1)" class="triangle-float1"></path></g><defs><mask id="SvgjsMask1146"><rect width="260" height="400" fill="#ffffff"></rect></mask><style>
                @keyframes float1 {
                    0%{transform: translate(0, 0)}
                    50%{transform: translate(-10px, 0)}
                    100%{transform: translate(0, 0)}
                }

                .triangle-float1 {
                    animation: float1 5s infinite;
                }

                @keyframes float2 {
                    0%{transform: translate(0, 0)}
                    50%{transform: translate(-5px, -5px)}
                    100%{transform: translate(0, 0)}
                }

                .triangle-float2 {
                    animation: float2 4s infinite;
                }

                @keyframes float3 {
                    0%{transform: translate(0, 0)}
                    50%{transform: translate(0, -10px)}
                    100%{transform: translate(0, 0)}
                }

                .triangle-float3 {
                    animation: float3 6s infinite;
                }
            </style></defs></svg>