<svg xmlns="http://www.w3.org/2000/svg" version="1.1" xmlns:xlink="http://www.w3.org/1999/xlink" xmlns:svgjs="http://svgjs.dev/svgjs" width="260" height="400" preserveAspectRatio="none" viewBox="0 0 260 400"><g mask="url(&quot;#SvgjsMask1124&quot;)" fill="none"><path d="M130.44 181.34 a83.84 83.84 0 1 0 167.68 0 a83.84 83.84 0 1 0 -167.68 0z" fill="rgba(250, 175, 64, 1)" class="triangle-float3"></path><path d="M50.72 30.53 a49.92 49.92 0 1 0 99.84 0 a49.92 49.92 0 1 0 -99.84 0z" fill="rgba(250, 175, 64, 1)" class="triangle-float2"></path><path d="M-43.29 105.49 a76.41 76.41 0 1 0 152.82 0 a76.41 76.41 0 1 0 -152.82 0z" fill="rgba(250, 175, 64, 1)" class="triangle-float1"></path><path d="M-8.28 372.41 a80.26 80.26 0 1 0 160.52 0 a80.26 80.26 0 1 0 -160.52 0z" fill="rgba(250, 175, 64, 1)" class="triangle-float3"></path></g><defs><mask id="SvgjsMask1124"><rect width="260" height="400" fill="#ffffff"></rect></mask><style>
                @keyframes float1 {
                    0%{transform: translate(0, 0)}
                    50%{transform: translate(-10px, 0)}
                    100%{transform: translate(0, 0)}
                }

                .triangle-float1 {
                    animation: float1 5s infinite;
                }

                @keyframes float2 {
                    0%{transform: translate(0, 0)}
                    50%{transform: translate(-5px, -5px)}
                    100%{transform: translate(0, 0)}
                }

                .triangle-float2 {
                    animation: float2 4s infinite;
                }

                @keyframes float3 {
                    0%{transform: translate(0, 0)}
                    50%{transform: translate(0, -10px)}
                    100%{transform: translate(0, 0)}
                }

                .triangle-float3 {
                    animation: float3 6s infinite;
                }
            </style></defs></svg>